<svg xmlns="http://www.w3.org/2000/svg" width="164" height="139" fill="none"><path fill="#000" d="M74.7233 7.71094C77.7894 2.57031 79.3224 0 81.5941 0s3.8047 2.57031 6.8707 7.71093L159.166 126.251c3.2 5.366 4.8 8.049 3.65 10.073-1.15 2.025-4.273 2.025-10.521 2.025H10.8932c-6.24767 0-9.37151 0-10.521353-2.025-1.149844-2.024.450308-4.707 3.650613-10.073L74.7233 7.71094Z"/><g filter="url(#a)"><path fill="#fff" fill-opacity=".2" d="M74.3608 41.6835c3.0639-5.1118 4.5958-7.6676 6.8618-7.6676 2.2659 0 3.7979 2.5558 6.8618 7.6676l40.0636 66.8405c3.219 5.371 4.828 8.056 3.679 10.084-1.149 2.029-4.28 2.029-10.541 2.029H41.1593c-6.2615 0-9.3923 0-10.5414-2.029-1.1491-2.028.4605-4.713 3.6796-10.084l40.0633-66.8405Z"/></g><g filter="url(#b)"><path fill="#fff" fill-opacity=".2" d="M73.8895 73.0575c3.0665-5.148 4.5998-7.722 6.873-7.722 2.2731 0 3.8064 2.574 6.873 7.722l11.8202 19.8432c3.1953 5.3645 4.7933 8.0463 3.6433 10.0703-1.15 2.024-4.2722 2.024-10.5163 2.024H68.9423c-6.2442 0-9.3663 0-10.5163-2.024-1.15-2.024.4477-4.7058 3.6433-10.0703l11.8202-19.8432Z"/></g><defs><filter id="a" width="101.949" height="87.6209" x="30.2478" y="34.0159" color-interpolation-filters="sRGB" filterUnits="userSpaceOnUse"><feFlood flood-opacity="0" result="BackgroundImageFix"/><feBlend in="SourceGraphic" in2="BackgroundImageFix" result="shape"/><feColorMatrix in="SourceAlpha" result="hardAlpha" values="0 0 0 0 0 0 0 0 0 0 0 0 0 0 0 0 0 0 127 0"/><feOffset dy="1"/><feGaussianBlur stdDeviation="5"/><feComposite in2="hardAlpha" k2="-1" k3="1" operator="arithmetic"/><feColorMatrix values="0 0 0 0 0 0 0 0 0 0 0 0 0 0 0 0 0 0 0.2 0"/><feBlend in2="shape" result="effect1_innerShadow_405_68"/></filter><filter id="b" width="45.4175" height="40.6594" x="58.0537" y="65.3355" color-interpolation-filters="sRGB" filterUnits="userSpaceOnUse"><feFlood flood-opacity="0" result="BackgroundImageFix"/><feBlend in="SourceGraphic" in2="BackgroundImageFix" result="shape"/><feColorMatrix in="SourceAlpha" result="hardAlpha" values="0 0 0 0 0 0 0 0 0 0 0 0 0 0 0 0 0 0 127 0"/><feOffset dy="1"/><feGaussianBlur stdDeviation="5"/><feComposite in2="hardAlpha" k2="-1" k3="1" operator="arithmetic"/><feColorMatrix values="0 0 0 0 0 0 0 0 0 0 0 0 0 0 0 0 0 0 0.2 0"/><feBlend in2="shape" result="effect1_innerShadow_405_68"/></filter></defs></svg>